<?xml version="1.0" ?><svg style="enable-background:new 0 0 32 32;" version="1.1" viewBox="0 0 32 32" xml:space="preserve" xmlns="http://www.w3.org/2000/svg" xmlns:xlink="http://www.w3.org/1999/xlink"><style type="text/css">
	.st0{fill:#222A30;}
	.st1{fill:none;stroke:#222A30;stroke-width:1.8761;stroke-linejoin:round;stroke-miterlimit:10;}
	.st2{fill:#171715;}
	.st3{fill-rule:evenodd;clip-rule:evenodd;fill:#222A30;}
</style><g id="Layer_1"/><g id="icons"><g id="gift_x5F_box"><path class="st0" d="M24.8,6.5c0.2-0.8,0.2-2-1.2-3.3C22.8,2.4,22,2,21.1,2c-2.5,0-4.3,3.5-5.2,5.8C15,5.5,13.2,2,10.7,2    C9.8,2,9,2.4,8.2,3.2C6.8,4.5,6.8,5.7,7,6.5c0.9,3,7.3,4.2,8.6,4.4c0,0,0.1,0,0.1,0c0.1,0,0.1,0,0.2,0c0.1,0,0.1,0,0.2,0    c0,0,0.1,0,0.1,0C17.5,10.7,23.9,9.5,24.8,6.5z M8.7,6C8.5,5.5,8.8,5,9.4,4.4c0.5-0.4,0.9-0.7,1.3-0.7c1.4,0,2.9,2.7,3.8,5.2    C11.9,8.3,9,7.2,8.7,6z M23.1,6c-0.4,1.2-3.3,2.3-5.8,2.9c0.8-2.2,2.3-5.2,3.8-5.2c0.4,0,0.8,0.2,1.3,0.7C23,5,23.3,5.5,23.1,6z"/><path class="st0" d="M4.4,17.2h10.5V12H6.1c-1,0-1.8,0.8-1.8,1.8V17.2z"/><path class="st0" d="M17.2,12v5.2h10.5v-3.5c0-1-0.8-1.8-1.8-1.8H17.2z"/><path class="st0" d="M5.5,30h9.3V19.3c0-0.5-0.4-1-1-1H6.5c-0.5,0-1,0.4-1,1V30z"/><path class="st0" d="M17.2,30h9.3V19.3c0-0.5-0.4-1-1-1h-7.3c-0.5,0-1,0.4-1,1V30z"/></g></g></svg>